# xmcd CD database file
#
# Track frame offsets:
#	150
#	16361
#	30202
#	43770
#	54577
#	67624
#	83223
#	94038
#	109812
#	119099
#	136566
#	151243
#
# Disc length: 2248 seconds
#
# Revision: 0
# Processed by: cddbd v1.5.1PL0 Copyright (c) Steve Scherf et al.
# Submitted via: CDex 1.51
#
DISCID=8b08c60c
DTITLE=Ricky Chouinard - Tout l'monde contre
DYEAR=1900
DGENRE=Country
TTITLE0=Vente de garage
TTITLE1=Elle est partie
TTITLE2=Le temps perdu
TTITLE3=Trop vieux
TTITLE4=Salut mon gars
TTITLE5=Tout l'monde est contree
TTITLE6=La chasse aux talons hauts
TTITLE7=Un chum comme toé
TTITLE8=Un p'tit voyage rapide
TTITLE9=Le cowboy
TTITLE10=Ch'in toé
TTITLE11=Raison d'arrêter
EXTD=
EXTT0=
EXTT1=
EXTT2=
EXTT3=
EXTT4=
EXTT5=
EXTT6=
EXTT7=
EXTT8=
EXTT9=
EXTT10=
EXTT11=
PLAYORDER=
